<svg width="1517" height="516" viewBox="0 0 1517 516" fill="none" xmlns="http://www.w3.org/2000/svg">
<path d="M7.16497e-05 -1.90277e-06L1517 0.000130718L1517 171.327C1512.21 172.293 1507.22 173.014 1502.45 174.319C1476.14 181.558 1462.52 196.477 1463.1 219.965C1463.49 236.028 1466.18 252.074 1468.24 268.086C1471.78 295.669 1473.24 323.056 1458.38 348.943C1454.31 356.021 1449.45 362.811 1444.37 369.406C1443.06 371.101 1439.55 371.584 1437.06 372.618C1435.85 370.474 1433.47 368.244 1433.66 366.193C1434.28 359.581 1435.09 352.859 1437.18 346.494C1444.08 325.48 1438.43 307.587 1420.65 291.939C1409.77 282.369 1405.94 270.485 1408.13 257.406C1409.37 249.98 1411.59 242.674 1413.09 235.274C1414.57 227.992 1416.06 220.406 1407.84 215.091C1399.7 209.827 1390.68 209.615 1381.16 212.65C1358.16 219.999 1350.28 247.276 1372.2 260.559C1374.67 262.059 1377.31 263.594 1379.05 265.619C1380.48 267.281 1381.65 269.917 1381.08 271.697C1380.72 272.833 1376.92 273.909 1374.77 273.791C1351.05 272.536 1331.66 257.168 1326.96 237.088C1323.2 221.033 1328.11 205.987 1332.49 190.738C1336.49 176.82 1342.82 163.24 1340.88 148.423C1339.2 135.539 1329.73 131.665 1317.25 139.235C1305.3 146.482 1299.67 157.358 1295.13 168.623C1285.82 191.721 1287.67 215.083 1292.65 238.656C1296.17 255.329 1300.34 272.358 1293.22 288.981C1289.19 298.39 1283.01 307.146 1277.73 316.165C1272.66 324.802 1266.99 333.228 1262.46 342.06C1256.13 354.394 1257.27 366.702 1264.15 378.84C1269.28 387.901 1274.36 397.039 1278.49 406.448C1284.45 420.036 1283.77 433.903 1277.82 447.406C1274.18 455.637 1269.87 463.681 1265.35 471.598C1264.25 473.522 1261.14 474.624 1258.95 476.099C1257.79 473.726 1255.53 471.301 1255.67 468.979C1256.17 460.647 1258.21 452.348 1258.2 444.041C1258.2 439.337 1256.2 434.259 1253.59 430.013C1248.87 422.307 1242.4 421.731 1234.22 426.8C1231.06 428.758 1227.05 429.724 1223.43 431.14C1223.39 427.749 1222.67 424.248 1223.43 420.994C1226.97 405.693 1228.87 390.478 1223.39 375.204C1221.25 369.245 1216.89 365.354 1210.16 362.76C1204.46 360.565 1198.87 357.886 1193.92 354.656C1186.8 350.003 1186.1 345.705 1191.77 339.729C1200.52 330.515 1210.36 322.039 1218.91 312.698C1223.59 307.578 1227.44 301.594 1230.08 295.508C1233.54 287.531 1227.23 273.901 1217.43 273.536C1213.3 273.384 1207.75 274.147 1205.24 276.402C1202.66 278.716 1201.65 283.64 1202.55 286.895C1203.12 288.955 1208.42 290.159 1211.7 291.549C1214.4 292.693 1217.27 293.549 1220.06 294.541C1218.41 296.694 1217.3 299.517 1215 300.873C1207.08 305.518 1198.89 309.858 1190.53 313.91C1179.01 319.496 1166.99 320.352 1154.97 314.953C1144.41 310.214 1137.92 299.763 1142.38 290.489C1149.5 275.664 1158.07 261.263 1167.12 247.192C1183.66 221.491 1181.07 185.762 1158.56 163.596C1146.96 152.17 1131.71 144.66 1112.71 148.796C1094.05 152.857 1082.01 163.181 1075.39 178.718C1067.85 196.417 1071.91 213.938 1074.88 231.518C1079.01 255.948 1085.45 280.097 1083.54 305.111C1082.01 325.201 1073.35 342.281 1056.52 356.208C1042.43 367.871 1027.55 378.84 1013.27 390.342C996.565 403.803 985.306 419.773 983.726 439.743C982.576 454.357 987.406 467.885 995.745 480.431C1001.55 489.187 1008.45 497.426 1014.8 505.928C1017.15 509.064 1020.15 513.133 1015.48 515.515C1013.03 516.761 1007.01 515.43 1004.32 513.523C960.509 482.533 946.27 436.107 967.068 392.86C974.227 377.967 983.456 363.794 990.776 348.952C995.625 339.111 999.415 328.812 1002.51 318.462C1006.71 304.476 1002.57 291.591 992.345 280.207C985.436 272.502 978.087 265.085 970.988 257.49C958.739 244.394 956.209 230.027 963.968 214.659C968.448 205.784 973.497 197.104 978.577 188.458C989.226 170.344 992.365 150.882 988.896 131.386C984.616 107.329 965.928 97.1322 937.521 100.658C910.814 103.973 884.977 123.401 880.237 145.728C878.377 154.501 879.787 164.122 881.717 173.048C885.087 188.644 890.426 203.936 894.166 219.49C898.165 236.121 894.946 252.32 888.796 268.34C882.847 283.835 876.668 299.356 872.548 315.232C867.778 333.601 871.888 350.673 888.906 364.337C892.356 367.108 895.126 370.558 897.705 373.974C898.605 375.161 898.785 378.018 897.895 378.611C896.426 379.594 893.566 380.044 891.746 379.543C864.949 372.186 841.011 344.883 839.072 320.835C837.562 302 844.161 284.251 847.561 266.052C849.67 254.761 850.24 243.394 842.461 232.976C835.942 224.254 825.193 222.906 816.294 230.027C808.335 236.392 805.525 244.903 802.875 253.447C799.656 263.822 796.326 274.189 793.456 284.632C789.387 299.449 776.978 309.417 765.439 319.869C764.139 321.047 760.96 320.75 758.65 321.132C758.35 319.174 757.16 316.911 757.92 315.317C761.15 308.553 765.349 302.119 768.489 295.329C774.218 282.937 775.178 270.197 765.879 258.931C758.84 250.404 750.321 242.572 741.372 235.409C718.824 217.363 713.055 196.536 724.574 172.158C727.013 166.995 729.093 161.706 731.453 156.213C729.073 154.772 726.943 153.484 724.084 151.763C722.774 154.238 721.564 156.256 720.614 158.358C711.985 177.32 698.266 192.84 678.299 204.36C670.429 208.903 661.98 210.946 652.591 210.624C639.563 210.175 633.253 202.563 637.843 192.238C641.502 183.999 646.002 176.04 649.832 167.852C654.521 157.832 651.081 153.509 638.483 153.704C630.654 153.823 622.824 154.874 614.995 154.899C603.696 154.933 599.727 149.068 605.566 140.939C609.226 135.844 613.555 131.064 617.985 126.41C630.654 113.102 636.983 98.1409 634.873 80.959C632.913 65.0063 615.155 54.2496 591.818 58.6574C565.23 63.6754 545.562 88.4014 550.332 111.424C553.922 128.741 558.251 145.94 562.331 163.181C567.46 184.872 565.16 205.919 554.932 226.314C550.272 235.604 545.792 244.962 541.123 254.244C530.864 274.63 530.264 295.389 536.813 316.665C540.193 327.633 543.283 338.763 545.043 349.977C547.202 363.777 542.483 376.67 534.724 388.834C531.194 394.369 528.144 400.116 524.875 405.761C524.105 405.583 523.335 405.414 522.565 405.236C522.565 403.396 522.045 401.413 522.665 399.743C524.325 395.259 526.545 390.936 528.434 386.511C535.734 369.397 533.014 353.733 516.936 341.238C500.857 328.735 496.858 313.944 500.027 296.245C502.027 285.081 503.147 273.341 495.878 262.864C494.188 260.423 489.468 256.931 487.939 257.482C484.459 258.736 480.799 261.83 479.549 264.865C476.75 271.621 479.03 277.944 485.169 283.106C487.049 284.683 488.778 286.387 490.578 288.031L489.458 289.811C487.499 289.345 485.109 289.328 483.649 288.328C478.54 284.81 473.49 281.174 468.901 277.19C458.362 268.044 459.952 256.761 461.871 245.564C463.091 238.469 464.651 231.408 466.251 223.381C461.641 223.381 458.912 223.517 456.212 223.356C447.053 222.813 445.363 220.702 448.733 213.548C453.422 203.571 458.582 193.747 463.171 183.745C470.691 167.377 470.51 150.805 462.401 134.759C459.682 129.368 454.772 124.274 449.463 120.459C443.043 115.848 435.144 116.848 428.105 120.587C417.316 126.3 410.947 134.844 406.097 144.617C398.368 160.206 390.069 175.591 381.97 191.043C381.36 192.204 380.54 193.417 379.44 194.239C377.86 195.417 376.01 196.79 374.111 197.011C373.281 197.104 371.341 194.62 371.091 193.162C369.921 186.381 369.081 179.558 368.271 172.742C366.571 158.46 359.342 152.696 342.234 152.102C340.714 152.051 339.184 152.043 337.685 151.856C324.266 150.178 321.546 146.025 327.875 135.861C332.135 129.029 337.674 122.748 341.694 115.831C345.124 109.923 347.993 103.608 349.663 97.2C351.573 89.8763 347.293 86.2738 338.454 86.2229C321.156 86.1212 307.618 97.1999 305.898 113.89C304.618 126.3 304.648 138.803 303.998 151.255C302.968 171.073 293.609 188.755 283.9 206.275C274.051 224.042 273.281 241.766 282.54 259.855C287.68 269.891 292.369 280.089 297.269 290.21C297.849 291.405 298.849 292.566 298.939 293.778C299.079 295.558 298.569 297.372 298.339 299.178C296.269 298.856 293.679 299.101 292.199 298.135C266.282 281.114 242.795 254.803 256.193 217.998C260.803 205.326 264.082 192.213 266.522 179.108C268.782 166.995 264.692 155.594 255.733 145.821C247.204 136.522 236.895 137.395 230.796 147.974C229.086 150.941 228.496 154.501 228.146 157.849C227.716 161.909 228.586 166.08 227.916 170.089C227.556 172.276 225.186 174.234 223.726 176.294C221.497 174.862 218.227 173.819 217.217 171.92C209.938 158.265 208.388 143.922 210.298 129.063C211.738 117.857 212.848 106.533 212.628 95.2843C212.488 88.147 206.748 82.7136 199.849 78.5008C194.699 75.356 189.36 72.3469 184.761 68.685C173.552 59.7339 168.402 48.85 170.982 35.5589C171.952 30.5917 173.412 24.9039 165.493 22.4119C157.853 20.0045 149.274 22.6407 145.255 28.9642C137.446 41.2466 135.836 54.2241 140.295 67.6594C145.315 82.7391 151.444 97.5983 155.384 112.873C161.973 138.43 153.274 161.647 137.306 183.279C136.786 183.991 135.936 184.55 135.166 185.101C134.806 185.355 134.266 185.432 132.196 186.144C131.806 183.355 130.946 180.88 131.226 178.498C132.286 169.555 134.506 160.663 134.686 151.729C134.786 146.643 132.776 141.066 129.956 136.488C122.367 124.164 106.789 123.596 97.8597 135.387C87.6008 148.932 85.4111 164.173 87.0109 179.981C88.9207 198.816 91.5404 217.642 92.1504 236.511C92.9203 260.398 81.6515 281.309 65.9632 300.602C64.5134 302.382 61.1536 303.043 58.6739 304.23C58.054 303.738 57.434 303.246 56.8141 302.755C59.1538 295.397 61.9935 288.116 63.7233 280.657C66.203 269.968 68.8929 259.194 69.5828 248.37C70.2328 238.139 63.2434 230.094 54.4943 223.322C51.3446 220.889 48.205 218.431 45.3354 215.769C40.2659 211.073 38.786 205.614 41.8057 199.655C44.9953 193.34 48.5849 187.178 51.7546 180.854C58.3539 167.716 54.5944 153.162 42.3257 143.719C29.977 134.217 15.3684 134.708 3.90968 145.016C2.86975 145.948 1.84984 146.906 0.0200761 148.576L0.0200891 0.0169676L7.16497e-05 -1.90277e-06Z" fill="#F8A228"/>
</svg>
