<svg width="1440" height="1159" viewBox="0 0 1440 1159" fill="none" xmlns="http://www.w3.org/2000/svg">
<rect width="1440" height="560" fill="#F8A228"/>
<g clip-path="url(#clip0_51_3)">
<path d="M-38.1601 550.25L1479 550.25L1479 752.37C1474.21 753.51 1469.22 754.36 1464.45 755.9C1438.14 764.44 1424.51 782.04 1425.09 809.75C1425.48 828.7 1428.17 847.63 1430.23 866.52C1433.78 899.06 1435.24 931.37 1420.37 961.91C1416.3 970.26 1411.44 978.27 1406.36 986.05C1405.05 988.05 1401.54 988.62 1399.05 989.84C1397.84 987.31 1395.46 984.68 1395.65 982.26C1396.27 974.46 1397.08 966.53 1399.17 959.02C1406.07 934.23 1400.42 913.12 1382.64 894.66C1371.76 883.37 1367.93 869.35 1370.12 853.92C1371.36 845.16 1373.58 836.54 1375.08 827.81C1376.56 819.22 1378.05 810.27 1369.83 804C1361.69 797.79 1352.67 797.54 1343.15 801.12C1320.14 809.79 1312.26 841.97 1334.18 857.64C1336.65 859.41 1339.3 861.22 1341.04 863.61C1342.47 865.57 1343.64 868.68 1343.07 870.78C1342.71 872.12 1338.91 873.39 1336.75 873.25C1313.03 871.77 1293.64 853.64 1288.94 829.95C1285.18 811.01 1290.09 793.26 1294.47 775.27C1298.47 758.85 1304.8 742.83 1302.86 725.35C1301.18 710.15 1291.71 705.58 1279.23 714.51C1267.28 723.06 1261.65 735.89 1257.11 749.18C1247.8 776.43 1249.65 803.99 1254.63 831.8C1258.15 851.47 1262.32 871.56 1255.2 891.17C1251.17 902.27 1244.99 912.6 1239.7 923.24C1234.63 933.43 1228.96 943.37 1224.43 953.79C1218.1 968.34 1219.24 982.86 1226.12 997.18C1231.25 1007.87 1236.33 1018.65 1240.46 1029.75C1246.43 1045.78 1245.75 1062.14 1239.79 1078.07C1236.15 1087.78 1231.84 1097.27 1227.32 1106.61C1226.22 1108.88 1223.11 1110.18 1220.92 1111.92C1219.76 1109.12 1217.5 1106.26 1217.64 1103.52C1218.14 1093.69 1220.18 1083.9 1220.17 1074.1C1220.17 1068.55 1218.17 1062.56 1215.56 1057.55C1210.84 1048.46 1204.37 1047.78 1196.19 1053.76C1193.03 1056.07 1189.02 1057.21 1185.4 1058.88C1185.36 1054.88 1184.64 1050.75 1185.4 1046.91C1188.94 1028.86 1190.84 1010.91 1185.36 992.89C1183.22 985.86 1178.86 981.27 1172.13 978.21C1166.43 975.62 1160.84 972.46 1155.89 968.65C1148.77 963.16 1148.07 958.09 1153.74 951.04C1162.49 940.17 1172.33 930.17 1180.88 919.15C1185.56 913.11 1189.41 906.05 1192.05 898.87C1195.51 889.46 1189.2 873.38 1179.4 872.95C1175.27 872.77 1169.72 873.67 1167.21 876.33C1164.63 879.06 1163.62 884.87 1164.52 888.71C1165.09 891.14 1170.39 892.56 1173.67 894.2C1176.37 895.55 1179.24 896.56 1182.03 897.73C1180.38 900.27 1179.27 903.6 1176.97 905.2C1169.05 910.68 1160.86 915.8 1152.5 920.58C1140.97 927.17 1128.95 928.18 1116.93 921.81C1106.37 916.22 1099.88 903.89 1104.34 892.95C1111.46 875.46 1120.03 858.47 1129.08 841.87C1145.62 811.55 1143.03 769.4 1120.52 743.25C1108.92 729.77 1093.67 720.91 1074.67 725.79C1056.01 730.58 1043.96 742.76 1037.34 761.09C1029.8 781.97 1033.86 802.64 1036.83 823.38C1040.96 852.2 1047.4 880.69 1045.49 910.2C1043.96 933.9 1035.3 954.05 1018.47 970.48C1004.38 984.24 989.5 997.18 975.22 1010.75C958.51 1026.63 947.25 1045.47 945.67 1069.03C944.52 1086.27 949.35 1102.23 957.69 1117.03C963.5 1127.36 970.4 1137.08 976.75 1147.11C979.1 1150.81 982.1 1155.61 977.43 1158.42C974.98 1159.89 968.96 1158.32 966.27 1156.07C922.45 1119.51 908.21 1064.74 929.01 1013.72C936.17 996.15 945.4 979.43 952.72 961.92C957.57 950.31 961.36 938.16 964.46 925.95C968.66 909.45 964.52 894.25 954.29 880.82C947.38 871.73 940.03 862.98 932.93 854.02C920.68 838.57 918.15 821.62 925.91 803.49C930.39 793.02 935.44 782.78 940.52 772.58C951.17 751.21 954.31 728.25 950.84 705.25C946.56 676.87 927.87 664.84 899.46 669C872.75 672.91 846.91 695.83 842.17 722.17C840.31 732.52 841.72 743.87 843.65 754.4C847.02 772.8 852.36 790.84 856.1 809.19C860.1 828.81 856.88 847.92 850.73 866.82C844.78 885.1 838.6 903.41 834.48 922.14C829.71 943.81 833.82 963.95 850.84 980.07C854.29 983.34 857.06 987.41 859.64 991.44C860.54 992.84 860.72 996.21 859.83 996.91C858.36 998.07 855.5 998.6 853.68 998.01C826.88 989.33 802.94 957.12 801 928.75C799.49 906.53 806.09 885.59 809.49 864.12C811.6 850.8 812.17 837.39 804.39 825.1C797.87 814.81 787.12 813.22 778.22 821.62C770.26 829.13 767.45 839.17 764.8 849.25C761.58 861.49 758.25 873.72 755.38 886.04C751.31 903.52 738.9 915.28 727.36 927.61C726.06 929 722.88 928.65 720.57 929.1C720.27 926.79 719.08 924.12 719.84 922.24C723.07 914.26 727.27 906.67 730.41 898.66C736.14 884.04 737.1 869.01 727.8 855.72C720.76 845.66 712.24 836.42 703.29 827.97C680.74 806.68 674.97 782.11 686.49 753.35C688.93 747.26 691.01 741.02 693.37 734.54C690.99 732.84 688.86 731.32 686 729.29C684.69 732.21 683.48 734.59 682.53 737.07C673.9 759.44 660.18 777.75 640.21 791.34C632.34 796.7 623.89 799.11 614.5 798.73C601.47 798.2 595.16 789.22 599.75 777.04C603.41 767.32 607.91 757.93 611.74 748.27C616.43 736.45 612.99 731.35 600.39 731.58C592.56 731.72 584.73 732.96 576.9 732.99C565.6 733.03 561.63 726.11 567.47 716.52C571.13 710.51 575.46 704.87 579.89 699.38C592.56 683.68 598.89 666.03 596.78 645.76C594.82 626.94 577.06 614.25 553.72 619.45C527.13 625.37 507.46 654.54 512.23 681.7C515.82 702.13 520.15 722.42 524.23 742.76C529.36 768.35 527.06 793.18 516.83 817.24C512.17 828.2 507.69 839.24 503.02 850.19C492.76 874.24 492.16 898.73 498.71 923.83C502.09 936.77 505.18 949.9 506.94 963.13C509.1 979.41 504.38 994.62 496.62 1008.97C493.09 1015.5 490.04 1022.28 486.77 1028.94C486 1028.73 485.23 1028.53 484.46 1028.32C484.46 1026.15 483.94 1023.81 484.56 1021.84C486.22 1016.55 488.44 1011.45 490.33 1006.23C497.63 986.04 494.91 967.56 478.83 952.82C462.75 938.07 458.75 920.62 461.92 899.74C463.92 886.57 465.04 872.72 457.77 860.36C456.08 857.48 451.36 853.36 449.83 854.01C446.35 855.49 442.69 859.14 441.44 862.72C438.64 870.69 440.92 878.15 447.06 884.24C448.94 886.1 450.67 888.11 452.47 890.05L451.35 892.15C449.39 891.6 447 891.58 445.54 890.4C440.43 886.25 435.38 881.96 430.79 877.26C420.25 866.47 421.84 853.16 423.76 839.95C424.98 831.58 426.54 823.25 428.14 813.78C423.53 813.78 420.8 813.94 418.1 813.75C408.94 813.11 407.25 810.62 410.62 802.18C415.31 790.41 420.47 778.82 425.06 767.02C432.58 747.71 432.4 728.16 424.29 709.23C421.57 702.87 416.66 696.86 411.35 692.36C404.93 686.92 397.03 688.1 389.99 692.51C379.2 699.25 372.83 709.33 367.98 720.86C360.25 739.25 351.95 757.4 343.85 775.63C343.24 777 342.42 778.43 341.32 779.4C339.74 780.79 337.89 782.41 335.99 782.67C335.16 782.78 333.22 779.85 332.97 778.13C331.8 770.13 330.96 762.08 330.15 754.04C328.45 737.19 321.22 730.39 304.11 729.69C302.59 729.63 301.06 729.62 299.56 729.4C286.14 727.42 283.42 722.52 289.75 710.53C294.01 702.47 299.55 695.06 303.57 686.9C307 679.93 309.87 672.48 311.54 664.92C313.45 656.28 309.17 652.03 300.33 651.97C283.03 651.85 269.49 664.92 267.77 684.61C266.49 699.25 266.52 714 265.87 728.69C264.84 752.07 255.48 772.93 245.77 793.6C235.92 814.56 235.15 835.47 244.41 856.81C249.55 868.65 254.24 880.68 259.14 892.62C259.72 894.03 260.72 895.4 260.81 896.83C260.95 898.93 260.44 901.07 260.21 903.2C258.14 902.82 255.55 903.11 254.07 901.97C228.15 881.89 204.66 850.85 218.06 807.43C222.67 792.48 225.95 777.01 228.39 761.55C230.65 747.26 226.56 733.81 217.6 722.28C209.07 711.31 198.76 712.34 192.66 724.82C190.95 728.32 190.36 732.52 190.01 736.47C189.58 741.26 190.45 746.18 189.78 750.91C189.42 753.49 187.05 755.8 185.59 758.23C183.36 756.54 180.09 755.31 179.08 753.07C171.8 736.96 170.25 720.04 172.16 702.51C173.6 689.29 174.71 675.93 174.49 662.66C174.35 654.24 168.61 647.83 161.71 642.86C156.56 639.15 151.22 635.6 146.62 631.28C135.41 620.72 130.26 607.88 132.84 592.2C133.81 586.34 135.27 579.63 127.35 576.69C119.71 573.85 111.13 576.96 107.11 584.42C99.2999 598.91 97.69 614.22 102.15 630.07C107.17 647.86 113.3 665.39 117.24 683.41C123.83 713.56 115.13 740.95 99.1599 766.47C98.6399 767.31 97.79 767.97 97.0199 768.62C96.6599 768.92 96.1199 769.01 94.05 769.85C93.6599 766.56 92.7998 763.64 93.0799 760.83C94.1399 750.28 96.3599 739.79 96.54 729.25C96.6399 723.25 94.6299 716.67 91.81 711.27C84.22 696.73 68.6399 696.06 59.7099 709.97C49.4499 725.95 47.2599 743.93 48.8599 762.58C50.7699 784.8 53.3899 807.01 53.9999 829.27C54.7699 857.45 43.4999 882.12 27.81 904.88C26.36 906.98 22.9999 907.76 20.5199 909.16C19.8999 908.58 19.2799 908 18.6599 907.42C20.9999 898.74 23.8399 890.15 25.5698 881.35C28.0498 868.74 30.74 856.03 31.43 843.26C32.08 831.19 25.0899 821.7 16.3399 813.71C13.1898 810.84 10.05 807.94 7.17996 804.8C2.11002 799.26 0.629915 792.82 3.64993 785.79C6.83988 778.34 10.4298 771.07 13.5999 763.61C20.1999 748.11 16.44 730.94 4.16996 719.8C-8.18001 708.59 -22.7901 709.17 -34.2501 721.33C-35.2901 722.43 -36.3101 723.56 -38.1401 725.53L-38.1401 550.27L-38.1601 550.25Z" fill="#F8A228"/>
</g>
<path d="M1512 244C1512 377.653 1403.65 486 1270 486C1136.35 486 1028 377.653 1028 244C1028 110.347 1136.35 2 1270 2C1403.65 2 1512 110.347 1512 244Z" fill="#BA2025"/>
<path d="M655 601C655 640.765 622.764 673 583 673C543.235 673 511 640.765 511 601C511 561.235 543.235 529 583 529C622.764 529 655 561.235 655 601Z" fill="#F29627"/>
<path d="M1120 616C1120 634.225 1105.23 649 1087 649C1068.77 649 1054 634.225 1054 616C1054 597.775 1068.77 583 1087 583C1105.23 583 1120 597.775 1120 616Z" fill="#F29627"/>
<path d="M1254 559C1254 590.48 1228.48 616 1197 616C1165.52 616 1140 590.48 1140 559C1140 527.52 1165.52 502 1197 502C1228.48 502 1254 527.52 1254 559Z" fill="#F29627"/>
<path d="M1041 547C1041 533.193 1029.81 522 1016 522C1002.19 522 991 533.193 991 547C991 560.807 1002.19 572 1016 572C1029.81 572 1041 560.807 1041 547Z" fill="#F29627"/>
<path d="M1381 515C1381 501.193 1369.81 490 1356 490C1342.19 490 1331 501.193 1331 515C1331 528.807 1342.19 540 1356 540C1369.81 540 1381 528.807 1381 515Z" fill="#F29627"/>
<path d="M1260 649C1260 635.193 1248.81 624 1235 624C1221.19 624 1210 635.193 1210 649C1210 662.807 1221.19 674 1235 674C1248.81 674 1260 662.807 1260 649Z" fill="#F29627"/>
<path d="M444 125C444 164.765 411.764 197 372 197C332.235 197 300 164.765 300 125C300 85.2355 332.235 53 372 53C411.764 53 444 85.2355 444 125Z" fill="#F29627"/>
<path d="M982 363C982 402.765 949.764 435 910 435C870.235 435 838 402.765 838 363C838 323.235 870.235 291 910 291C949.764 291 982 323.235 982 363Z" fill="#BA2025"/>
<path d="M769 105C769 128.196 750.196 147 727 147C703.804 147 685 128.196 685 105C685 81.804 703.804 63 727 63C750.196 63 769 81.804 769 105Z" fill="#F29627"/>
<path d="M353 355C353 480.921 250.921 583 125 583C-0.920921 583 -103 480.921 -103 355C-103 229.079 -0.920921 127 125 127C250.921 127 353 229.079 353 355Z" fill="#F29627"/>
<defs>
<clipPath id="clip0_51_3">
<rect width="1517.16" height="608.75" fill="white" transform="translate(1479 1159) rotate(-180)"/>
</clipPath>
</defs>
</svg>
