<svg width="1440" height="609" viewBox="0 0 1440 609" fill="none" xmlns="http://www.w3.org/2000/svg">
<path d="M1454.16 608.743L-62.9999 608.743L-62.9999 406.623C-58.2099 405.483 -53.2199 404.633 -48.4499 403.093C-22.1399 394.553 -8.50993 376.953 -9.08994 349.243C-9.47994 330.293 -12.1699 311.363 -14.2299 292.473C-17.78 259.933 -19.24 227.623 -4.36996 197.083C-0.299966 188.733 4.56003 180.723 9.64003 172.943C10.95 170.943 14.46 170.373 16.95 169.153C18.16 171.683 20.54 174.313 20.35 176.733C19.73 184.533 18.92 192.463 16.83 199.973C9.93004 224.763 15.58 245.873 33.36 264.333C44.24 275.623 48.0701 289.643 45.8801 305.073C44.6401 313.833 42.4201 322.453 40.9201 331.183C39.4401 339.773 37.9501 348.723 46.1701 354.993C54.3101 361.203 63.3301 361.453 72.8501 357.873C95.8601 349.203 103.74 317.023 81.8201 301.353C79.3501 299.583 76.7001 297.773 74.9601 295.383C73.5301 293.423 72.36 290.313 72.93 288.213C73.29 286.873 77.09 285.603 79.25 285.743C102.97 287.223 122.36 305.353 127.06 329.043C130.82 347.983 125.91 365.733 121.53 383.723C117.53 400.143 111.2 416.163 113.14 433.643C114.82 448.843 124.29 453.413 136.77 444.483C148.72 435.933 154.35 423.103 158.89 409.813C168.2 382.563 166.35 355.003 161.37 327.193C157.85 307.523 153.68 287.433 160.8 267.823C164.83 256.723 171.01 246.393 176.3 235.753C181.37 225.563 187.04 215.623 191.57 205.203C197.9 190.653 196.76 176.133 189.88 161.813C184.75 151.123 179.67 140.343 175.54 129.243C169.57 113.213 170.25 96.8528 176.21 80.9227C179.85 71.2127 184.16 61.7228 188.68 52.3827C189.78 50.1127 192.89 48.8128 195.08 47.0728C196.24 49.8727 198.5 52.7327 198.36 55.4727C197.86 65.3027 195.82 75.0927 195.83 84.8927C195.83 90.4427 197.83 96.4327 200.44 101.443C205.16 110.533 211.63 111.213 219.81 105.233C222.97 102.923 226.98 101.783 230.6 100.113C230.64 104.113 231.36 108.243 230.6 112.083C227.06 130.133 225.16 148.083 230.64 166.103C232.78 173.133 237.14 177.723 243.87 180.783C249.57 183.373 255.16 186.533 260.11 190.343C267.23 195.833 267.93 200.903 262.26 207.953C253.51 218.823 243.67 228.823 235.12 239.843C230.44 245.883 226.59 252.943 223.95 260.123C220.49 269.533 226.8 285.613 236.6 286.043C240.73 286.223 246.28 285.323 248.79 282.663C251.37 279.933 252.38 274.123 251.48 270.283C250.91 267.853 245.61 266.433 242.33 264.793C239.63 263.443 236.76 262.433 233.97 261.263C235.62 258.723 236.73 255.393 239.03 253.793C246.95 248.313 255.14 243.193 263.5 238.413C275.03 231.823 287.05 230.813 299.07 237.183C309.63 242.773 316.12 255.103 311.66 266.043C304.54 283.533 295.97 300.523 286.92 317.123C270.38 347.443 272.97 389.593 295.48 415.743C307.08 429.223 322.33 438.083 341.33 433.203C359.99 428.413 372.04 416.233 378.66 397.903C386.2 377.023 382.14 356.353 379.17 335.613C375.04 306.793 368.6 278.303 370.51 248.793C372.04 225.093 380.7 204.943 397.53 188.513C411.62 174.753 426.5 161.813 440.78 148.243C457.49 132.363 468.75 113.523 470.33 89.9627C471.48 72.7227 466.65 56.7627 458.31 41.9627C452.5 31.6327 445.6 21.9127 439.25 11.8827C436.9 8.18271 433.9 3.38271 438.57 0.572705C441.02 -0.897296 447.04 0.672703 449.73 2.9227C493.55 39.4827 507.79 94.2527 486.99 145.273C479.83 162.843 470.6 179.563 463.28 197.073C458.43 208.683 454.64 220.833 451.54 233.043C447.34 249.543 451.48 264.743 461.71 278.173C468.62 287.263 475.97 296.013 483.07 304.973C495.32 320.423 497.85 337.373 490.09 355.503C485.61 365.973 480.56 376.213 475.48 386.413C464.83 407.783 461.69 430.743 465.16 453.743C469.44 482.123 488.13 494.153 516.54 489.993C543.25 486.083 569.09 463.163 573.83 436.823C575.69 426.473 574.28 415.123 572.35 404.593C568.98 386.193 563.64 368.153 559.9 349.803C555.9 330.183 559.12 311.073 565.27 292.173C571.22 273.893 577.4 255.583 581.52 236.853C586.29 215.183 582.18 195.043 565.16 178.923C561.71 175.653 558.94 171.583 556.36 167.553C555.46 166.153 555.28 162.783 556.17 162.083C557.64 160.923 560.5 160.393 562.32 160.983C589.12 169.663 613.06 201.873 615 230.243C616.51 252.463 609.91 273.403 606.51 294.873C604.4 308.193 603.83 321.603 611.61 333.893C618.13 344.183 628.88 345.773 637.78 337.373C645.74 329.863 648.55 319.823 651.2 309.743C654.42 297.503 657.75 285.273 660.62 272.953C664.69 255.473 677.1 243.713 688.64 231.383C689.94 229.993 693.12 230.343 695.43 229.893C695.73 232.203 696.92 234.873 696.16 236.753C692.93 244.733 688.73 252.323 685.59 260.333C679.86 274.953 678.9 289.983 688.2 303.273C695.24 313.333 703.76 322.573 712.71 331.023C735.26 352.313 741.03 376.883 729.51 405.643C727.07 411.733 724.99 417.973 722.63 424.453C725.01 426.153 727.14 427.673 730 429.703C731.31 426.783 732.52 424.403 733.47 421.923C742.1 399.553 755.82 381.243 775.79 367.653C783.66 362.293 792.11 359.883 801.5 360.263C814.53 360.793 820.84 369.773 816.25 381.953C812.59 391.673 808.09 401.063 804.26 410.723C799.57 422.543 803.01 427.643 815.61 427.413C823.44 427.273 831.27 426.033 839.1 426.003C850.4 425.963 854.37 432.883 848.53 442.473C844.87 448.483 840.54 454.123 836.11 459.613C823.44 475.313 817.11 492.963 819.22 513.233C821.18 532.053 838.94 544.743 862.28 539.543C888.87 533.623 908.54 504.453 903.77 477.293C900.18 456.863 895.85 436.573 891.77 416.233C886.64 390.643 888.94 365.813 899.17 341.753C903.83 330.793 908.31 319.753 912.98 308.803C923.24 284.753 923.84 260.263 917.29 235.163C913.91 222.223 910.82 209.093 909.06 195.863C906.9 179.583 911.62 164.373 919.38 150.023C922.91 143.493 925.96 136.713 929.23 130.053C930 130.263 930.77 130.463 931.54 130.673C931.54 132.843 932.06 135.183 931.44 137.153C929.78 142.443 927.56 147.543 925.67 152.763C918.37 172.953 921.09 191.433 937.17 206.173C953.25 220.923 957.25 238.373 954.08 259.253C952.08 272.423 950.96 286.273 958.23 298.633C959.92 301.513 964.64 305.633 966.17 304.983C969.65 303.503 973.31 299.853 974.56 296.273C977.36 288.303 975.08 280.843 968.94 274.753C967.06 272.893 965.33 270.883 963.53 268.943L964.65 266.843C966.61 267.393 969 267.413 970.46 268.593C975.57 272.743 980.62 277.033 985.21 281.733C995.75 292.523 994.16 305.833 992.24 319.043C991.02 327.413 989.46 335.743 987.86 345.213C992.47 345.213 995.2 345.053 997.9 345.243C1007.06 345.883 1008.75 348.373 1005.38 356.813C1000.69 368.583 995.53 380.173 990.94 391.973C983.42 411.283 983.6 430.833 991.71 449.763C994.43 456.123 999.34 462.133 1004.65 466.633C1011.07 472.073 1018.97 470.893 1026.01 466.483C1036.8 459.743 1043.17 449.663 1048.02 438.133C1055.75 419.743 1064.05 401.593 1072.15 383.363C1072.76 381.993 1073.58 380.563 1074.68 379.593C1076.26 378.203 1078.11 376.583 1080.01 376.323C1080.84 376.213 1082.78 379.143 1083.03 380.863C1084.2 388.863 1085.04 396.913 1085.85 404.953C1087.55 421.803 1094.78 428.603 1111.89 429.303C1113.41 429.363 1114.94 429.373 1116.44 429.593C1129.86 431.573 1132.58 436.473 1126.25 448.463C1121.99 456.523 1116.45 463.933 1112.43 472.093C1109 479.063 1106.13 486.513 1104.46 494.073C1102.55 502.713 1106.83 506.963 1115.67 507.023C1132.97 507.143 1146.51 494.073 1148.23 474.383C1149.51 459.743 1149.48 444.993 1150.13 430.303C1151.16 406.923 1160.52 386.063 1170.23 365.393C1180.08 344.433 1180.85 323.523 1171.59 302.183C1166.45 290.343 1161.76 278.313 1156.86 266.373C1156.28 264.963 1155.28 263.593 1155.19 262.163C1155.05 260.063 1155.56 257.923 1155.79 255.793C1157.86 256.173 1160.45 255.883 1161.93 257.023C1187.85 277.103 1211.34 308.143 1197.94 351.563C1193.33 366.513 1190.05 381.983 1187.61 397.443C1185.35 411.733 1189.44 425.183 1198.4 436.713C1206.93 447.683 1217.24 446.653 1223.34 434.173C1225.05 430.673 1225.64 426.473 1225.99 422.523C1226.42 417.733 1225.55 412.813 1226.22 408.083C1226.58 405.503 1228.95 403.193 1230.41 400.763C1232.64 402.453 1235.91 403.683 1236.92 405.923C1244.2 422.033 1245.75 438.953 1243.84 456.483C1242.4 469.703 1241.29 483.063 1241.51 496.333C1241.65 504.753 1247.39 511.163 1254.29 516.133C1259.44 519.843 1264.78 523.393 1269.38 527.713C1280.59 538.273 1285.74 551.113 1283.16 566.793C1282.19 572.653 1280.73 579.363 1288.65 582.303C1296.29 585.143 1304.87 582.033 1308.89 574.573C1316.7 560.083 1318.31 544.773 1313.85 528.923C1308.83 511.133 1302.7 493.603 1298.76 475.583C1292.17 445.433 1300.87 418.043 1316.84 392.523C1317.36 391.683 1318.21 391.023 1318.98 390.373C1319.34 390.073 1319.88 389.983 1321.95 389.143C1322.34 392.433 1323.2 395.353 1322.92 398.163C1321.86 408.713 1319.64 419.203 1319.46 429.743C1319.36 435.743 1321.37 442.323 1324.19 447.723C1331.78 462.263 1347.36 462.933 1356.29 449.023C1366.55 433.043 1368.74 415.063 1367.14 396.413C1365.23 374.193 1362.61 351.983 1362 329.723C1361.23 301.543 1372.5 276.873 1388.19 254.113C1389.64 252.013 1393 251.233 1395.48 249.833C1396.1 250.413 1396.72 250.993 1397.34 251.573C1395 260.253 1392.16 268.843 1390.43 277.643C1387.95 290.253 1385.26 302.963 1384.57 315.733C1383.92 327.803 1390.91 337.293 1399.66 345.283C1402.81 348.153 1405.95 351.053 1408.82 354.193C1413.89 359.733 1415.37 366.173 1412.35 373.203C1409.16 380.653 1405.57 387.923 1402.4 395.383C1395.8 410.883 1399.56 428.053 1411.83 439.193C1424.18 450.403 1438.79 449.823 1450.25 437.663C1451.29 436.563 1452.31 435.433 1454.14 433.463L1454.14 608.723L1454.16 608.743Z" fill="#F8A228"/>
</svg>
